<?xml version="1.0" encoding="iso-8859-1"?>
<!-- Generator: Adobe Illustrator 16.0.0, SVG Export Plug-In . SVG Version: 6.00 Build 0)  -->
<!DOCTYPE svg PUBLIC "-//W3C//DTD SVG 1.1//EN" "http://www.w3.org/Graphics/SVG/1.1/DTD/svg11.dtd">
<svg version="1.1" id="Capa_1" xmlns="http://www.w3.org/2000/svg" xmlns:xlink="http://www.w3.org/1999/xlink" x="0px" y="0px"
	 width="512.954px" height="512.954px" viewBox="0 0 512.954 512.954" style="enable-background:new 0 0 512.954 512.954;"
	 xml:space="preserve">
<g>
	<path d="M396.648,115.314h-49.705V90.721C346.943,40.699,306.247,0,256.218,0c-50.022,0-90.716,40.704-90.716,90.721v24.593
		h-49.196c-5.486,0-9.941,4.45-9.941,9.941v377.758c0,5.483,4.455,9.94,9.941,9.94h280.342c5.488,0,9.94-4.457,9.94-9.94V125.255
		C406.589,119.764,402.137,115.314,396.648,115.314z M185.379,90.716c0-39.059,31.771-70.839,70.834-70.839
		c39.066,0,70.848,31.781,70.848,70.839v24.593H185.379V90.716z M386.707,493.072h-260.46V135.196h39.25v43.777
		c-4.798,3.211-7.953,8.669-7.953,14.872c0,9.878,8.011,17.894,17.894,17.894c9.873,0,17.894-8.016,17.894-17.894
		c0-6.203-3.165-11.661-7.953-14.872v-43.777h141.683v43.777c-4.797,3.211-7.952,8.669-7.952,14.872
		c0,9.878,8.014,17.894,17.894,17.894c9.875,0,17.894-8.016,17.894-17.894c0-6.203-3.164-11.661-7.953-14.872v-43.777h39.764
		V493.072z"/>
</g>
<g>
</g>
<g>
</g>
<g>
</g>
<g>
</g>
<g>
</g>
<g>
</g>
<g>
</g>
<g>
</g>
<g>
</g>
<g>
</g>
<g>
</g>
<g>
</g>
<g>
</g>
<g>
</g>
<g>
</g>
</svg>
